<svg width="363" height="246" viewBox="0 0 363 246" fill="none" xmlns="http://www.w3.org/2000/svg">
<path d="M355.135 19.2731H336.127L277.375 238.153H208.543L181.183 136.777L154.111 238.153H85.2795L26.5275 19.2731H7.51947V7.75311H239.935V19.2731H218.623L270.463 212.521L322.303 19.2731H290.911V7.75311H355.135V19.2731ZM136.831 226.633L82.3995 19.2731H40.6395L95.0715 226.633H136.831ZM174.559 111.433L149.791 19.2731H95.3595L147.199 212.521L174.559 111.433ZM260.095 226.633L205.663 19.2731H163.903L218.335 226.633H260.095Z" fill="black"/>
<path d="M355.135 19.2731V26.2731H362.135V19.2731H355.135ZM336.127 19.2731V12.2731H330.759L329.367 17.4584L336.127 19.2731ZM277.375 238.153V245.153H282.744L284.136 239.968L277.375 238.153ZM208.543 238.153L201.785 239.977L203.182 245.153H208.543V238.153ZM181.183 136.777L187.942 134.953L181.148 109.78L174.42 134.971L181.183 136.777ZM154.111 238.153V245.153H159.487L160.874 239.959L154.111 238.153ZM85.2795 238.153L78.5188 239.968L79.9106 245.153H85.2795V238.153ZM26.5275 19.2731L33.2882 17.4584L31.8963 12.2731H26.5275V19.2731ZM7.51947 19.2731H0.51947V26.2731H7.51947V19.2731ZM7.51947 7.75311V0.753113H0.51947V7.75311H7.51947ZM239.935 7.75311H246.935V0.753113H239.935V7.75311ZM239.935 19.2731V26.2731H246.935V19.2731H239.935ZM218.623 19.2731V12.2731H209.498L211.863 21.0868L218.623 19.2731ZM270.463 212.521L263.703 214.335L270.463 239.538L277.224 214.335L270.463 212.521ZM322.303 19.2731L329.064 21.0868L331.429 12.2731H322.303V19.2731ZM290.911 19.2731H283.911V26.2731H290.911V19.2731ZM290.911 7.75311V0.753113H283.911V7.75311H290.911ZM355.135 7.75311H362.135V0.753113H355.135V7.75311ZM136.831 226.633V233.633H145.906L143.602 224.856L136.831 226.633ZM82.3995 19.2731L89.1701 17.4958L87.7991 12.2731H82.3995V19.2731ZM40.6395 19.2731V12.2731H31.5648L33.8689 21.0504L40.6395 19.2731ZM95.0715 226.633L88.3009 228.41L89.6718 233.633H95.0715V226.633ZM174.559 111.433L181.316 113.262L181.81 111.44L181.32 109.616L174.559 111.433ZM149.791 19.2731L156.552 17.4563L155.159 12.2731H149.791V19.2731ZM95.3595 19.2731V12.2731H86.2342L88.5985 21.0868L95.3595 19.2731ZM147.199 212.521L140.439 214.335L147.169 239.426L153.956 214.35L147.199 212.521ZM260.095 226.633V233.633H269.17L266.866 224.856L260.095 226.633ZM205.663 19.2731L212.434 17.4958L211.063 12.2731H205.663V19.2731ZM163.903 19.2731V12.2731H154.829L157.133 21.0504L163.903 19.2731ZM218.335 226.633L211.565 228.41L212.936 233.633H218.335V226.633ZM355.135 12.2731H336.127V26.2731H355.135V12.2731ZM329.367 17.4584L270.615 236.338L284.136 239.968L342.888 21.0878L329.367 17.4584ZM277.375 231.153H208.543V245.153H277.375V231.153ZM215.302 236.329L187.942 134.953L174.425 138.601L201.785 239.977L215.302 236.329ZM174.42 134.971L147.348 236.347L160.874 239.959L187.946 138.583L174.42 134.971ZM154.111 231.153H85.2795V245.153H154.111V231.153ZM92.0402 236.338L33.2882 17.4584L19.7668 21.0878L78.5188 239.968L92.0402 236.338ZM26.5275 12.2731H7.51947V26.2731H26.5275V12.2731ZM14.5195 19.2731V7.75311H0.51947V19.2731H14.5195ZM232.935 7.75311V19.2731H246.935V7.75311H232.935ZM239.935 12.2731H218.623V26.2731H239.935V12.2731ZM211.863 21.0868L263.703 214.335L277.224 210.707L225.384 17.4594L211.863 21.0868ZM277.224 214.335L329.064 21.0868L315.543 17.4594L263.703 210.707L277.224 214.335ZM322.303 12.2731H290.911V26.2731H322.303V12.2731ZM297.911 19.2731V7.75311H283.911V19.2731H297.911ZM348.135 7.75311V19.2731H362.135V7.75311H348.135ZM143.602 224.856L89.1701 17.4958L75.6289 21.0504L130.061 228.41L143.602 224.856ZM82.3995 12.2731H40.6395V26.2731H82.3995V12.2731ZM33.8689 21.0504L88.3009 228.41L101.842 224.856L47.4101 17.4958L33.8689 21.0504ZM95.0715 233.633H136.831V219.633H95.0715V233.633ZM181.32 109.616L156.552 17.4563L143.031 21.0899L167.799 113.25L181.32 109.616ZM88.5985 21.0868L140.439 214.335L153.96 210.707L102.12 17.4594L88.5985 21.0868ZM153.956 214.35L181.316 113.262L167.803 109.604L140.443 210.692L153.956 214.35ZM266.866 224.856L212.434 17.4958L198.893 21.0504L253.325 228.41L266.866 224.856ZM205.663 12.2731H163.903V26.2731H205.663V12.2731ZM157.133 21.0504L211.565 228.41L225.106 224.856L170.674 17.4958L157.133 21.0504ZM218.335 233.633H260.095V219.633H218.335V233.633ZM7.51947 14.7531H239.935V0.753113H7.51947V14.7531ZM290.911 14.7531H355.135V0.753113H290.911V14.7531ZM149.791 12.2731H95.3595V26.2731H149.791V12.2731Z" fill="black"/>
</svg>
